<svg id="Layer_1" data-name="Layer 1" xmlns="http://www.w3.org/2000/svg" viewBox="0 0 18 18"><path d="M3,2A1,1,0,0,0,2,3V5A1,1,0,0,0,3,6H5A1,1,0,0,0,6,5V3A1,1,0,0,0,5,2ZM.88.88A3,3,0,0,1,3,0H5A3,3,0,0,1,8,3V5A3,3,0,0,1,5,8H3A3,3,0,0,1,0,5V3A3,3,0,0,1,.88.88ZM13,2a1,1,0,0,0-1,1V5a1,1,0,0,0,1,1h2a1,1,0,0,0,1-1V3a1,1,0,0,0-1-1ZM10.88.88A3,3,0,0,1,13,0h2a3,3,0,0,1,3,3V5a3,3,0,0,1-3,3H13a3,3,0,0,1-3-3V3A3,3,0,0,1,10.88.88ZM3,12a1,1,0,0,0-1,1v2a1,1,0,0,0,1,1H5a1,1,0,0,0,1-1V13a1,1,0,0,0-1-1ZM.88,10.88A3,3,0,0,1,3,10H5a3,3,0,0,1,3,3v2a3,3,0,0,1-3,3H3a3,3,0,0,1-3-3V13A3,3,0,0,1,.88,10.88Z" fill="#757575" fill-rule="evenodd"/><path d="M13,12a1,1,0,0,0-1,1v2a1,1,0,0,0,1,1h2a1,1,0,0,0,1-1V13a1,1,0,0,0-1-1Zm-2.12-1.12A3,3,0,0,1,13,10h2a3,3,0,0,1,3,3v2a3,3,0,0,1-3,3H13a3,3,0,0,1-3-3V13A3,3,0,0,1,10.88,10.88Z" fill="#757575" fill-rule="evenodd"/></svg>