<svg width="375" height="586" viewBox="0 0 375 586" fill="none" xmlns="http://www.w3.org/2000/svg">
<g style="mix-blend-mode:multiply">
<path fill-rule="evenodd" clip-rule="evenodd" d="M93.6141 -304.584C118.789 -293.237 129.999 -263.63 118.653 -238.455L11.5023 -0.721497L236.477 -97.6158C256.04 -106.041 278.792 -101.149 293.162 -85.4265C307.532 -69.7044 310.364 -46.6048 300.218 -27.8768L146.639 255.608L404.477 123.253C423.504 113.486 446.636 116.902 462.027 131.752C477.419 146.602 481.661 169.597 472.582 188.961L348.694 453.187L525.013 397.789C551.357 389.512 579.424 404.158 587.701 430.503C595.978 456.847 581.332 484.914 554.987 493.191L270.099 582.701C251.174 588.647 230.524 582.843 217.468 567.909C204.412 552.975 201.419 531.734 209.84 513.774L319.879 279.085L48.5229 418.38C29.0203 428.391 5.27083 424.53 -10.0571 408.858C-25.3849 393.185 -28.7162 369.356 -18.2738 350.081L143.614 51.2599L-67.2219 142.065C-86.1701 150.225 -108.185 145.91 -122.651 131.2C-137.116 116.49 -141.061 94.4059 -132.584 75.5973L27.4848 -279.545C38.8317 -304.721 68.4388 -315.931 93.6141 -304.584Z" fill="url(#paint0_linear_4_66)"/>
</g>
<defs>
<linearGradient id="paint0_linear_4_66" x1="226.5" y1="-259" x2="226.5" y2="477.128" gradientUnits="userSpaceOnUse">
<stop stop-color="#F2E8CF"/>
<stop offset="1" stop-color="#F2E8CF" stop-opacity="0"/>
</linearGradient>
</defs>
</svg>
