<svg id="Layer_1" data-name="Layer 1" xmlns="http://www.w3.org/2000/svg" xmlns:xlink="http://www.w3.org/1999/xlink" viewBox="0 0 727.01 894.01"><defs><linearGradient id="linear-gradient" x1="363.51" y1="1156.01" x2="363.51" y2="419.88" gradientTransform="matrix(1, 0, 0, -1, 0, 1206.03)" gradientUnits="userSpaceOnUse"><stop offset="0" stop-color="#f2e8cf"/><stop offset="1" stop-color="#f2e8cf" stop-opacity="0"/></linearGradient></defs><path d="M230.62,4.43a50,50,0,0,1,25,66.13L148.5,308.29l225-96.89a50,50,0,0,1,63.74,69.74L283.64,564.62,541.48,432.27a50,50,0,0,1,68.1,65.7L485.7,762.2,662,706.8a50,50,0,0,1,30,95.4L407.1,891.71a50,50,0,0,1-60.26-68.92l110-234.69L185.52,727.39a50,50,0,0,1-66.79-68.3L280.62,360.27,69.78,451.08A50,50,0,0,1,4.42,384.61L164.49,29.47A50,50,0,0,1,230.62,4.43Z" fill-rule="evenodd" fill="url(#linear-gradient)"/></svg>